:SAMPLES-PER-SECOND 30
:FULLY-SPECIFIED
:DEGREES
263
root  -46.5562 38.6745 2.24022 -39.911 -79.9755 38.1294
RightUpLeg  -29.3548 -10.0073 -6.93954
RightLeg  20.0832 2.14514 0.745667
RightFoot  -3.45606 -0.570878 7.98776
RightToes  2.32829e-010 0 -3.6325e-017
Spine  34.1023 -3.54981 0.606394
Spine1  17.4752 -2.37697 -2.7904
HEad  -20.186 -5.05405 0.215485
LeftShoulder1  1.99116 -3.20279 -23.4573
LeftArm  -1.5034 -41.3362 -55.8012
LeftForeArm  25.6209 -14.1076 -5.76376
LeftHand  -0.0713229 2.3917 2.33372
RightShoulder  0.448686 -1.78941 20.0605
RightArm  11.6158 44.0625 57.5604
RightForeArm  3.88016 7.8659 6.46516
RightHand  -0.668889 6.41673 -6.88032
LeftUpLeg  -15.0147 6.26593 -11.08
LeftLeg  27.0939 -1.72189 -0.600623
LeftFoot  -9.56664 -0.0743713 8.59409
LeftToes  -3.54706e-010 1.16038e-010 5.28031e-012
264
root  -47.621 38.5119 2.2814 -41.6833 -79.2385 40.2076
RightUpLeg  -28.0815 -11.0911 -6.52483
RightLeg  11.1654 0.214558 0.31435
RightFoot  -4.99832 -0.561016 9.31963
RightToes  2.32829e-010 0 -3.6325e-017
Spine  35.8081 -3.74017 1.07545
Spine1  17.7251 -2.47363 -2.8165
HEad  -21.565 -6.34488 -0.129434
LeftShoulder1  2.09448 -4.00594 -21.5323
LeftArm  -0.656903 -43.9304 -57.1296
LeftForeArm  24.0571 -16.1353 -4.98517
LeftHand  -0.076965 2.02692 2.19071
RightShoulder  0.476851 -1.64618 19.4621
RightArm  11.6827 45.4408 57.0814
RightForeArm  1.76949 8.99878 6.49203
RightHand  -0.834705 7.73409 -7.73201
LeftUpLeg  -14.5384 6.50757 -11.6437
LeftLeg  29.2284 -1.78063 -0.718092
LeftFoot  -11.5189 0.0823823 9.02801
LeftToes  -3.54706e-010 1.16038e-010 5.28031e-012
265
root  -48.6067 38.1607 2.29154 -40.553 -78.1792 39.711
RightUpLeg  -28.6193 -10.8473 -6.88587
RightLeg  9.45747 -1.38168 0.520712
RightFoot  -4.54245 -0.403855 6.60808
RightToes  2.32829e-010 0 -3.6325e-017
Spine  37.4452 -4.12578 2.04931
Spine1  17.9548 -2.88346 -2.40799
HEad  -23.533 -7.57517 -0.151819
LeftShoulder1  2.11964 -4.42512 -20.2906
LeftArm  -0.346596 -47.1793 -58.3103
LeftForeArm  21.807 -16.8934 -4.65746
LeftHand  -0.159221 0.925669 4.11136
RightShoulder  0.540784 -1.30114 18.2711
RightArm  11.3789 46.8522 56.3566
RightForeArm  1.51626 9.77237 6.32232
RightHand  -0.805144 7.69407 -7.48659
LeftUpLeg  -16.2614 6.94951 -12.1046
LeftLeg  34.6179 -2.15132 -1.24444
LeftFoot  -13.1113 0.196222 8.0263
LeftToes  -3.54706e-010 1.16038e-010 5.28031e-012
266
root  -49.5348 37.6801 2.28092 -38.8954 -78.2813 38.6467
RightUpLeg  -31.3918 -11.4254 -5.40528
RightLeg  13.8637 0.545896 0.794086
RightFoot  2.07614 -0.269585 2.39077
RightToes  2.32829e-010 0 -3.6325e-017
Spine  39.6793 -4.15722 3.68437
Spine1  17.309 -2.93473 -1.30178
HEad  -24.605 -8.72289 -0.384588
LeftShoulder1  2.15641 -4.62885 -20.0716
LeftArm  -0.250204 -50.7724 -58.8314
LeftForeArm  20.2311 -16.6236 -4.64734
LeftHand  -0.168781 0.896544 4.3016
RightShoulder  0.677935 -0.491194 15.8888
RightArm  10.1071 47.9494 55.3732
RightForeArm  0.895701 9.80493 6.01342
RightHand  -0.811323 7.86492 -7.44978
LeftUpLeg  -21.2236 9.0584 -11.4776
LeftLeg  45.1902 -2.78509 -2.66374
LeftFoot  -11.7402 0.114634 4.09768
LeftToes  -3.54706e-010 1.16038e-010 5.28031e-012
267
root  -50.346 36.9198 2.26261 -31.2618 -79.3363 31.8982
RightUpLeg  -36.6002 -13.4476 -2.18389
RightLeg  21.3497 3.75875 1.7649
RightFoot  10.0688 -0.00285758 0.257014
RightToes  2.32829e-010 0 -3.6325e-017
Spine  42.3116 -5.00686 7.35239
Spine1  15.1903 -2.26945 -2.09951
HEad  -25.8355 -10.1888 -0.290438
LeftShoulder1  2.2711 -5.49907 -18.6982
LeftArm  -0.817262 -53.8835 -58.805
LeftForeArm  19.7468 -16.23 -4.53159
LeftHand  -0.129701 1.38423 3.52625
RightShoulder  0.793311 0.321918 13.8642
RightArm  8.19207 49.0792 53.7037
RightForeArm  0.25763 9.22656 5.63904
RightHand  -0.78427 7.48071 -7.41305
LeftUpLeg  -29.8351 10.9164 -9.54593
LeftLeg  59.238 -2.37552 -3.52623
LeftFoot  -5.54312 0.0539728 -0.622701
LeftToes  -3.54706e-010 1.16038e-010 5.28031e-012
